<svg width="20" height="20" viewBox="0 0 20 20" fill="none" xmlns="http://www.w3.org/2000/svg">
<g clip-path="url(#clip0)">
<path d="M10 20C15.5228 20 20 15.5228 20 10C20 4.47715 15.5228 0 10 0C4.47715 0 0 4.47715 0 10C0 15.5228 4.47715 20 10 20Z" fill="#2775C9"/>
<path d="M9.84375 17.1875C8.3913 17.1875 6.97146 16.7568 5.76378 15.9499C4.55611 15.1429 3.61484 13.996 3.05901 12.6541C2.50318 11.3122 2.35775 9.83561 2.64111 8.41106C2.92447 6.98651 3.6239 5.67798 4.65094 4.65094C5.67798 3.6239 6.98651 2.92447 8.41106 2.64111C9.83561 2.35775 11.3122 2.50318 12.6541 3.05901C13.996 3.61484 15.1429 4.55611 15.9499 5.76378C16.7568 6.97146 17.1875 8.3913 17.1875 9.84375C17.1875 11.7914 16.4138 13.6593 15.0366 15.0366C13.6593 16.4138 11.7914 17.1875 9.84375 17.1875V17.1875ZM9.40625 7.11875C9.00445 7.13868 8.6246 7.30808 8.34129 7.59371C8.05797 7.87933 7.89166 8.26055 7.875 8.6625C7.875 9.41875 8.3375 9.9125 9.31875 10.1188L10.0063 10.2813C10.675 10.4375 10.95 10.6625 10.95 11.0438C10.95 11.425 10.4688 11.8 9.84375 11.8C9.62175 11.8204 9.39851 11.7778 9.19955 11.6772C9.0006 11.5766 8.83398 11.4221 8.71875 11.2313C8.68461 11.1588 8.63072 11.0975 8.56327 11.0544C8.49582 11.0113 8.41756 10.9881 8.3375 10.9875H7.96875C7.9404 10.9928 7.91336 11.0036 7.88919 11.0193C7.86503 11.035 7.84422 11.0554 7.82795 11.0792C7.81169 11.103 7.80029 11.1298 7.79442 11.1581C7.78856 11.1863 7.78833 11.2154 7.79375 11.2438C7.88358 11.6104 8.09242 11.9368 8.38759 12.1721C8.68277 12.4073 9.04761 12.538 9.425 12.5438V13.0688C9.425 13.1856 9.47143 13.2977 9.55406 13.3803C9.63669 13.463 9.74877 13.5094 9.86563 13.5094C9.98249 13.5094 10.0946 13.463 10.1772 13.3803C10.2598 13.2977 10.3063 13.1856 10.3063 13.0688V12.5375C10.733 12.5327 11.141 12.3614 11.4433 12.0602C11.7457 11.759 11.9185 11.3517 11.925 10.925C11.925 10.1313 11.4688 9.675 10.3875 9.44375L9.7625 9.30625C9.1375 9.15 8.84375 8.94375 8.84375 8.59375C8.84375 8.24375 9.21875 7.85625 9.84375 7.85625C10.0406 7.83569 10.2392 7.87256 10.4155 7.96239C10.5919 8.05223 10.7384 8.19119 10.8375 8.3625C10.8777 8.44806 10.9413 8.52047 11.0209 8.57136C11.1006 8.62224 11.193 8.64951 11.2875 8.65H11.5813C11.648 8.63367 11.7058 8.59178 11.742 8.53334C11.7782 8.47491 11.7901 8.40459 11.775 8.3375C11.6903 7.99903 11.5009 7.69593 11.2338 7.47147C10.9667 7.247 10.6355 7.11262 10.2875 7.0875V6.65625C10.2875 6.53939 10.2411 6.42732 10.1584 6.34468C10.0758 6.26205 9.96374 6.21563 9.84688 6.21563C9.73002 6.21563 9.61794 6.26205 9.53531 6.34468C9.45268 6.42732 9.40625 6.53939 9.40625 6.65625V7.11875V7.11875ZM4.3375 9.84375C4.33822 10.995 4.70061 12.117 5.37349 13.0512C6.04638 13.9854 6.99574 14.6846 8.0875 15.05H8.175C8.2496 15.05 8.32113 15.0204 8.37388 14.9676C8.42662 14.9149 8.45625 14.8433 8.45625 14.7688V14.6375C8.45646 14.5212 8.42212 14.4074 8.35758 14.3106C8.29305 14.2138 8.20123 14.1383 8.09375 14.0938C7.24351 13.7506 6.51522 13.1611 6.00237 12.4011C5.48952 11.641 5.21551 10.745 5.21551 9.82813C5.21551 8.91123 5.48952 8.01526 6.00237 7.2552C6.51522 6.49514 7.24351 5.90569 8.09375 5.5625C8.20073 5.51905 8.29234 5.44472 8.3569 5.34899C8.42146 5.25326 8.45605 5.14047 8.45625 5.025V4.88125C8.45666 4.83905 8.44688 4.79736 8.42775 4.75974C8.40861 4.72212 8.38069 4.68966 8.34634 4.66513C8.31199 4.6406 8.27224 4.62471 8.23044 4.61881C8.18865 4.61291 8.14605 4.61718 8.10625 4.63125C7.00998 4.99381 6.05581 5.69257 5.37927 6.62828C4.70273 7.56399 4.33822 8.68908 4.3375 9.84375V9.84375ZM15.35 9.84375C15.348 8.69353 14.985 7.57295 14.3122 6.64001C13.6394 5.70708 12.6908 5.00884 11.6 4.64375H11.5063C11.4283 4.64375 11.3536 4.6747 11.2985 4.72979C11.2435 4.78488 11.2125 4.8596 11.2125 4.9375V5.03125C11.215 5.1518 11.2524 5.26904 11.32 5.36884C11.3877 5.46865 11.4827 5.54676 11.5938 5.59375C12.4421 5.93795 13.1684 6.52744 13.6797 7.28678C14.1911 8.04612 14.4643 8.94078 14.4643 9.85625C14.4643 10.7717 14.1911 11.6664 13.6797 12.4257C13.1684 13.1851 12.4421 13.7746 11.5938 14.1188C11.4848 14.1662 11.3917 14.2438 11.3253 14.3423C11.2589 14.4408 11.2219 14.5562 11.2188 14.675V14.7813C11.2193 14.8276 11.2308 14.8731 11.2523 14.9142C11.2738 14.9552 11.3047 14.9906 11.3425 15.0174C11.3803 15.0442 11.4239 15.0617 11.4697 15.0685C11.5156 15.0752 11.5623 15.071 11.6063 15.0563C12.6979 14.6894 13.6466 13.9888 14.3184 13.0535C14.9902 12.1181 15.351 10.9953 15.35 9.84375V9.84375Z" fill="white"/>
</g>
<defs>
<clipPath id="clip0">
<rect width="19.8564" height="20" fill="white"/>
</clipPath>
</defs>
</svg>
