<svg width="20" height="20" viewBox="0 0 20 20" fill="none" xmlns="http://www.w3.org/2000/svg">
<path d="M10 20C15.5228 20 20 15.5228 20 10C20 4.47715 15.5228 0 10 0C4.47715 0 0 4.47715 0 10C0 15.5228 4.47715 20 10 20Z" fill="#26A17B"/>
<path fill-rule="evenodd" clip-rule="evenodd" d="M11.2012 10.8642V10.863C11.1325 10.868 10.7781 10.8892 9.9875 10.8892C9.35625 10.8892 8.91187 10.8705 8.75562 10.863V10.8648C6.32562 10.758 4.51187 10.3348 4.51187 9.82859C4.51187 9.32297 6.32562 8.89984 8.75562 8.79109V10.4436C8.91437 10.4548 9.36937 10.4817 9.99812 10.4817C10.7525 10.4817 11.1306 10.4505 11.2012 10.4442V8.79234C13.6262 8.90047 15.4356 9.32359 15.4356 9.82859C15.4356 10.3348 13.6262 10.7567 11.2012 10.8642ZM11.2012 8.62047V7.14172H14.585V4.88672H5.37187V7.14172H8.75562V8.61984C6.00562 8.74609 3.9375 9.29109 3.9375 9.94359C3.9375 10.5961 6.00562 11.1405 8.75562 11.2673V16.0061H11.2012V11.2661C13.9469 11.1398 16.01 10.5955 16.01 9.94359C16.01 9.29172 13.9469 8.74734 11.2012 8.62047Z" fill="white"/>
</svg>
