<svg width="20" height="20" viewBox="0 0 20 20" fill="none" xmlns="http://www.w3.org/2000/svg">
<g clip-path="url(#clip0_1840_101029)">
<g clip-path="url(#clip1_1840_101029)">
<path d="M20.0001 9.46018V10.56C19.991 10.58 19.9843 10.601 19.9801 10.6225C19.9168 11.641 19.6989 12.6439 19.3339 13.5968C18.0406 17.0075 14.8506 19.4963 11.2287 19.9249C10.0621 20.0631 8.90602 20.014 7.76231 19.749C5.74 19.2805 4.01023 18.2915 2.62285 16.7502C0.51524 14.4074 -0.311303 11.6513 0.103971 8.53088C0.267757 7.30048 0.684633 6.14977 1.29313 5.06752C2.89496 2.21715 5.88817 0.298089 9.14529 0.0370359C9.25061 0.0284276 9.35333 0.012412 9.45725 0H10.5375C10.6812 0.0150146 10.825 0.0302293 10.9688 0.0448435C12.1103 0.158129 13.2242 0.464658 14.2629 0.951323C17.469 2.44797 19.6801 5.62546 19.9628 9.14887C19.9716 9.25257 19.9877 9.35628 20.0001 9.46018ZM5.39681 14.7157C5.8235 14.7157 6.25059 14.7283 6.67687 14.7129C7.4874 14.6834 8.13474 14.3325 8.54561 13.6318C9.64299 11.7589 10.7282 9.87912 11.8013 7.99235C12.2018 7.28747 12.1948 6.54695 11.8073 5.83466C11.3764 5.04229 10.9183 4.26474 10.4698 3.48198C10.4205 3.39589 10.3679 3.30501 10.2954 3.24054C10.2057 3.16047 10.1014 3.08039 9.98945 3.04555C9.74517 2.96828 9.55135 3.08559 9.40378 3.27077C9.30487 3.39449 9.22678 3.53623 9.14789 3.67476C7.25413 6.99438 5.36224 10.3148 3.47221 13.636C3.4105 13.7423 3.36265 13.8561 3.32985 13.9746C3.24576 14.2911 3.39232 14.5607 3.70368 14.658C3.82478 14.694 3.95038 14.7125 4.0767 14.7131C4.51661 14.7195 4.95671 14.7157 5.39681 14.7157ZM13.6989 14.7157C14.3396 14.7157 14.9796 14.7157 15.6189 14.7157C15.7021 14.7156 15.7853 14.7104 15.868 14.7001C16.1543 14.664 16.3573 14.4973 16.4086 14.2546C16.4504 14.0544 16.3906 13.8707 16.2934 13.6997C15.632 12.5364 14.9685 11.3744 14.303 10.2137C14.2353 10.0993 14.1475 9.9982 14.0437 9.91522C13.8406 9.75146 13.5924 9.75506 13.3921 9.92243C13.2879 10.0101 13.1992 10.1148 13.1298 10.2321C12.4615 11.3799 11.7972 12.5299 11.137 13.6821C11.0794 13.7831 11.0364 13.8918 11.009 14.0048C10.9395 14.2923 11.0707 14.5453 11.3494 14.6442C11.4849 14.6898 11.6269 14.7131 11.7699 14.7133C12.4122 14.7195 13.055 14.7157 13.6989 14.7157Z" fill="#E74142"/>
<path d="M5.3969 14.7156C4.9564 14.7156 4.51589 14.7194 4.07679 14.713C3.95067 14.7124 3.82527 14.6938 3.70437 14.658C3.39301 14.5607 3.24644 14.291 3.33054 13.9745C3.36334 13.856 3.41118 13.7423 3.4729 13.636C5.36253 10.3148 7.25422 6.99434 9.14798 3.67473C9.22687 3.53619 9.30496 3.39445 9.40387 3.27073C9.55144 3.08636 9.74526 2.96824 9.98954 3.04552C10.1015 3.08095 10.2058 3.16063 10.2955 3.24051C10.368 3.30497 10.4206 3.39586 10.4699 3.48194C10.9184 4.2647 11.3765 5.04225 11.8074 5.83462C12.1941 6.5463 12.2025 7.28702 11.8014 7.9923C10.7283 9.8792 9.64308 11.7589 8.54569 13.6316C8.13482 14.3322 7.48748 14.6834 6.67696 14.7126C6.25067 14.7282 5.82359 14.7156 5.3969 14.7156Z" fill="#FEFEFE"/>
<path d="M13.699 14.7156C13.0559 14.7156 12.4123 14.7194 11.7692 14.7124C11.6262 14.7122 11.4842 14.6889 11.3487 14.6434C11.0694 14.5453 10.9383 14.2914 11.0083 14.0039C11.0357 13.8909 11.0788 13.7823 11.1363 13.6812C11.7974 12.5296 12.4617 11.3796 13.1291 10.2313C13.1985 10.114 13.2872 10.0093 13.3914 9.92156C13.5917 9.7534 13.84 9.75059 14.043 9.91435C14.1468 9.99733 14.2346 10.0985 14.3023 10.2128C14.9697 11.3726 15.6332 12.5346 16.2927 13.6988C16.3899 13.8698 16.4497 14.0534 16.4079 14.2538C16.3574 14.4964 16.1544 14.6632 15.8673 14.6992C15.7846 14.7095 15.7014 14.7147 15.6182 14.7148C14.9788 14.7163 14.3391 14.7166 13.699 14.7156Z" fill="#FEFDFD"/>
</g>
</g>
<defs>
<clipPath id="clip0_1840_101029">
<rect width="19.8564" height="20" fill="white"/>
</clipPath>
<clipPath id="clip1_1840_101029">
<rect width="20" height="20" fill="white"/>
</clipPath>
</defs>
</svg>
