<svg width="24" height="24" viewBox="0 0 24 24" fill="none" xmlns="http://www.w3.org/2000/svg">
<g clip-path="url(#clip0_1840_97877)">
<path d="M23.996 11.3522V12.6721C23.9851 12.696 23.9771 12.7212 23.972 12.747C23.8961 13.9691 23.6347 15.1726 23.1968 16.3161C21.6451 20.409 17.8177 23.3956 13.4721 23.9099C12.0725 24.0757 10.6854 24.0168 9.31319 23.6987C6.88683 23.1366 4.81146 21.9499 3.14688 20.1003C0.618183 17.2889 -0.3735 13.9816 0.124743 10.2371C0.321254 8.76058 0.82142 7.37972 1.55149 6.08102C3.47336 2.66058 7.0646 0.357707 10.9725 0.0444431C11.0988 0.0341131 11.2221 0.0148944 11.3468 0H12.6428C12.8153 0.0180175 12.9878 0.0362752 13.1603 0.0538122C14.5299 0.189755 15.8663 0.557589 17.1126 1.14159C20.9592 2.93757 23.6121 6.75055 23.9513 10.9786C23.9619 11.1031 23.9811 11.2275 23.996 11.3522ZM6.47507 17.6588C6.98701 17.6588 7.49943 17.6739 8.01088 17.6554C8.98335 17.6201 9.76002 17.199 10.253 16.3582C11.5696 14.1107 12.8717 11.8549 14.1592 9.59082C14.6396 8.74496 14.6312 7.85634 14.1664 7.00159C13.6494 6.05075 13.0997 5.11768 12.5616 4.17837C12.5025 4.07507 12.4393 3.96601 12.3524 3.88865C12.2448 3.79256 12.1196 3.69647 11.9853 3.65466C11.6922 3.56194 11.4597 3.70271 11.2826 3.92493C11.1639 4.07339 11.0703 4.24348 10.9756 4.40972C8.70347 8.39326 6.43359 12.3778 4.16595 16.3632C4.0919 16.4908 4.03449 16.6273 3.99514 16.7695C3.89424 17.1493 4.0701 17.4729 4.44366 17.5896C4.58895 17.6328 4.73965 17.655 4.89121 17.6557C5.41901 17.6634 5.94704 17.6588 6.47507 17.6588ZM16.4359 17.6588C17.2046 17.6588 17.9725 17.6588 18.7395 17.6588C18.8394 17.6587 18.9392 17.6524 19.0383 17.6401C19.3818 17.5968 19.6254 17.3967 19.6869 17.1056C19.7372 16.8653 19.6653 16.6448 19.5488 16.4396C18.7552 15.0437 17.9592 13.6493 17.1607 12.2564C17.0795 12.1192 16.9741 11.9978 16.8495 11.8983C16.606 11.7018 16.3081 11.7061 16.0678 11.9069C15.9427 12.0122 15.8363 12.1378 15.7531 12.2785C14.9512 13.6559 14.1542 15.0359 13.3621 16.4185C13.2931 16.5398 13.2414 16.6701 13.2086 16.8057C13.1252 17.1507 13.2826 17.4544 13.617 17.573C13.7796 17.6277 13.9499 17.6557 14.1215 17.6559C14.8921 17.6634 15.6633 17.6588 16.4359 17.6588Z" fill="#E74142"/>
<path d="M6.47507 17.6589C5.94656 17.6589 5.41804 17.6635 4.89121 17.6558C4.73989 17.6551 4.58944 17.6328 4.44438 17.5897C4.07081 17.473 3.89496 17.1494 3.99586 16.7696C4.03521 16.6274 4.09262 16.4909 4.16667 16.3634C6.43383 12.3779 8.70347 8.3934 10.9756 4.40987C11.0703 4.24363 11.1639 4.07354 11.2826 3.92508C11.4597 3.70382 11.6922 3.56209 11.9853 3.65482C12.1196 3.69734 12.2448 3.79295 12.3524 3.8888C12.4393 3.96616 12.5025 4.07522 12.5616 4.17852C13.0997 5.11783 13.6494 6.05089 14.1664 7.00173C14.6303 7.85576 14.6404 8.74462 14.1592 9.59096C12.8717 11.8552 11.5696 14.1109 10.253 16.3581C9.76002 17.1989 8.98335 17.6202 8.01088 17.6553C7.49942 17.6741 6.98701 17.6589 6.47507 17.6589Z" fill="#FEFEFE"/>
<path d="M16.4358 17.659C15.6642 17.659 14.8921 17.6636 14.1205 17.6552C13.949 17.655 13.7786 17.627 13.616 17.5723C13.2809 17.4546 13.1235 17.15 13.2076 16.805C13.2404 16.6694 13.2921 16.539 13.3611 16.4178C14.1544 15.0358 14.9514 13.6558 15.7521 12.2778C15.8353 12.1371 15.9418 12.0114 16.0669 11.9062C16.3071 11.7044 16.605 11.701 16.8486 11.8975C16.9731 11.9971 17.0785 12.1185 17.1597 12.2557C17.9604 13.6475 18.7565 15.0419 19.5478 16.4389C19.6643 16.6441 19.7362 16.8643 19.6859 17.1048C19.6254 17.396 19.3818 17.5961 19.0373 17.6393C18.9382 17.6517 18.8384 17.658 18.7385 17.6581C17.9713 17.6598 17.2038 17.6602 16.4358 17.659Z" fill="#FEFDFD"/>
</g>
<defs>
<clipPath id="clip0_1840_97877">
<rect width="23.9959" height="24" fill="white"/>
</clipPath>
</defs>
</svg>
