<svg width="16" height="16" viewBox="0 0 16 16" fill="none" xmlns="http://www.w3.org/2000/svg">
<path fill-rule="evenodd" clip-rule="evenodd" d="M9.43158 0.666667H1.34737C0.975303 0.666667 0.673684 0.965144 0.673684 1.33333V9.33333C0.673684 9.70152 0.975303 10 1.34737 10H9.43158C9.80364 10 10.1053 9.70152 10.1053 9.33333V1.33333C10.1053 0.965144 9.80364 0.666667 9.43158 0.666667ZM1.34737 0C0.603237 0 0 0.596954 0 1.33333V9.33333C0 10.0697 0.603237 10.6667 1.34737 10.6667H9.43158C10.1757 10.6667 10.7789 10.0697 10.7789 9.33333V1.33333C10.7789 0.596954 10.1757 0 9.43158 0H1.34737Z" fill="#6E79A3"/>
<path fill-rule="evenodd" clip-rule="evenodd" d="M14.6525 6.00016H6.56832C6.19625 6.00016 5.89463 6.29864 5.89463 6.66683V14.6668C5.89463 15.035 6.19625 15.3335 6.56832 15.3335H14.6525C15.0246 15.3335 15.3262 15.035 15.3262 14.6668V6.66683C15.3262 6.29864 15.0246 6.00016 14.6525 6.00016ZM6.56832 5.3335C5.82418 5.3335 5.22095 5.93045 5.22095 6.66683V14.6668C5.22095 15.4032 5.82418 16.0002 6.56832 16.0002H14.6525C15.3967 16.0002 15.9999 15.4032 15.9999 14.6668V6.66683C15.9999 5.93045 15.3967 5.3335 14.6525 5.3335H6.56832Z" fill="#6E79A3"/>
</svg>
