<svg width="24" height="20" viewBox="0 0 24 20" fill="none" xmlns="http://www.w3.org/2000/svg">
<path fill-rule="evenodd" clip-rule="evenodd" d="M2.846 3.887C2.876 3.592 2.763 3.301 2.543 3.103L0.303 0.403V0H7.261L12.639 11.795L17.367 0H24V0.403L22.084 2.24C21.919 2.366 21.837 2.573 21.871 2.778V16.276C21.837 16.48 21.919 16.687 22.084 16.813L23.955 18.65V19.053H14.543V18.65L16.482 16.768C16.672 16.578 16.672 16.522 16.672 16.231V5.321L11.283 19.009H10.555L4.28 5.321V14.495C4.228 14.88 4.356 15.269 4.627 15.547L7.148 18.605V19.009H0V18.605L2.521 15.547C2.791 15.268 2.911 14.877 2.846 14.495V3.887Z" fill="#FDFFFF"/>
</svg>
