<svg width="24" height="24" viewBox="0 0 24 24" fill="none" xmlns="http://www.w3.org/2000/svg">
<path d="M12.9189 24.0001H11.0506C11.0013 23.9804 10.9505 23.9646 10.8988 23.9528C10.445 23.8818 9.98697 23.8333 9.53788 23.7401C3.14289 22.4366 -1.07251 16.0471 0.239486 9.65722C1.62251 2.92485 8.19696 -1.26348 14.8616 0.343359C19.5988 1.48563 23.2099 5.48166 23.8814 10.3234C23.9167 10.5787 23.9601 10.834 24.0001 11.0892V12.9581C23.9537 13.2559 23.9086 13.5507 23.8614 13.8468C23.0206 19.1017 18.9562 23.1007 13.661 23.8848C13.4131 23.9213 13.166 23.9613 12.9189 24.0001ZM11.0574 10.0482C11.6447 9.70785 12.1861 9.38963 12.733 9.08162C12.85 9.0161 12.8832 8.93825 12.881 8.81147C12.8742 8.39371 12.8598 7.97509 12.881 7.55859C12.9146 6.95619 12.6463 6.55799 12.1372 6.2653C10.9728 5.59525 9.82324 4.89883 8.65796 4.23048C8.19398 3.96459 7.69385 3.96587 7.22944 4.23048C5.9723 4.95371 4.72495 5.69055 3.47376 6.42313C3.10802 6.63584 2.9209 6.95108 2.9209 7.38204C2.92472 8.81913 2.93536 10.2562 2.91622 11.6929C2.90856 12.2638 3.14885 12.6429 3.62729 12.9173C4.82375 13.6033 6.01625 14.2956 7.20477 14.9942C7.67556 15.272 8.12296 15.2618 8.58609 14.9921C10.8594 13.6684 13.1334 12.3462 15.4081 11.0254C15.8423 10.7723 16.2693 10.7901 16.6941 11.0348C17.3257 11.3981 17.9525 11.7686 18.5845 12.1311C19.0034 12.3714 19.2084 12.7267 19.2067 13.2104C19.2041 13.9536 19.1999 14.6972 19.2067 15.44C19.2118 15.942 18.9996 16.3058 18.5709 16.5576C17.9734 16.9086 17.3758 17.26 16.7847 17.6238C16.3199 17.9101 15.8652 17.8973 15.4038 17.6284C14.8356 17.297 14.2781 16.9478 13.6963 16.6406C13.1413 16.3475 12.8942 15.911 12.9257 15.2843C12.9461 14.8704 12.9295 14.4543 12.9295 14.0204C12.8942 14.0296 12.8597 14.0414 12.8262 14.0557C12.2933 14.3629 11.7583 14.6666 11.2318 14.9848C11.1671 15.024 11.1191 15.1418 11.1165 15.2244C11.1055 15.6557 11.1165 16.088 11.1097 16.5198C11.1004 17.0375 11.3266 17.4132 11.7689 17.6684C13.0107 18.3888 14.2524 19.1088 15.494 19.8283C15.5663 19.8709 15.6483 19.9189 15.7274 19.9215C16.1489 19.9372 16.5521 19.9411 16.9493 19.6986C18.0954 18.9983 19.2667 18.3372 20.4294 17.6659C20.8585 17.4179 21.0754 17.0635 21.072 16.5564C21.0618 15.0906 21.0618 13.6253 21.072 12.1604C21.075 11.6593 20.853 11.3096 20.4341 11.0679C19.2237 10.3639 18.0099 9.66913 16.8034 8.95569C16.3097 8.663 15.8465 8.68768 15.3651 8.97016C13.085 10.3074 10.8027 11.6425 8.51805 12.9755C8.09872 13.2206 7.67811 13.2036 7.26984 12.9632C6.6115 12.5761 5.96039 12.177 5.30758 11.7801C4.97884 11.5801 4.76152 11.29 4.75472 10.9024C4.736 10.0541 4.73728 9.20542 4.74834 8.35669C4.75344 7.94275 4.97119 7.63049 5.32162 7.42075C5.97188 7.03404 6.62851 6.65754 7.2826 6.27763C7.71724 6.02536 8.14975 6.05556 8.57036 6.30571C9.19637 6.67796 9.81388 7.06425 10.4416 7.43564C10.8669 7.6858 11.0727 8.04273 11.0642 8.53665C11.0523 9.02334 11.0574 9.51045 11.0574 10.0482Z" fill="#8247E4"/>
<path d="M11.0573 10.0484C11.0573 9.51071 11.0505 9.0236 11.0573 8.53691C11.0659 8.04299 10.8579 7.68605 10.4347 7.4359C9.80787 7.06451 9.19035 6.67822 8.56349 6.30597C8.14288 6.05582 7.71037 6.02562 7.27573 6.27789C6.62164 6.6578 5.96501 7.0343 5.31475 7.42101C4.96432 7.62905 4.74657 7.94131 4.74147 8.35695C4.73041 9.2078 4.72913 10.0544 4.74785 10.9027C4.75678 11.2903 4.9741 11.5804 5.30072 11.7804C5.95352 12.1773 6.60463 12.5763 7.26297 12.9635C7.67124 13.2038 8.09185 13.2209 8.51118 12.9758C10.7941 11.6428 13.0764 10.3087 15.3582 8.97339C15.8397 8.69091 16.3028 8.66624 16.7965 8.95893C18.0009 9.67237 19.2168 10.3671 20.4272 11.0712C20.8444 11.3141 21.0651 11.6625 21.0651 12.1637C21.0552 13.6288 21.0552 15.0941 21.0651 16.5596C21.0685 17.0667 20.8525 17.4211 20.4225 17.6691C19.2653 18.3404 18.0954 18.9998 16.9492 19.7001C16.552 19.9426 16.1488 19.9388 15.7274 19.923C15.6483 19.9205 15.5662 19.872 15.4939 19.8299C14.2518 19.1114 13.0101 18.3915 11.7688 17.67C11.3266 17.4147 11.1003 17.0378 11.1097 16.5213C11.1173 16.0895 11.1054 15.6573 11.1165 15.2259C11.119 15.1434 11.1671 15.0255 11.2317 14.9864C11.7582 14.6682 12.2949 14.3644 12.8261 14.0572C12.8596 14.043 12.8942 14.0312 12.9294 14.0219C12.9294 14.4559 12.946 14.8728 12.9256 15.2859C12.8941 15.9134 13.1421 16.3494 13.7043 16.6438C14.2861 16.9493 14.8436 17.3003 15.4118 17.6317C15.8733 17.9005 16.3279 17.9133 16.7927 17.627C17.3826 17.2633 17.9801 16.9119 18.5789 16.5609C19.0076 16.309 19.2198 15.9453 19.2147 15.4433C19.2062 14.7005 19.2104 13.9568 19.2147 13.2136C19.2147 12.7316 19.0114 12.3747 18.5925 12.1343C17.9605 11.7719 17.3337 11.4013 16.7021 11.038C16.2768 10.7934 15.8516 10.7755 15.4161 11.0286C13.1411 12.3514 10.866 13.6732 8.5907 14.994C8.12757 15.2638 7.68017 15.274 7.20939 14.9962C6.02256 14.2951 4.83007 13.6027 3.6319 12.9192C3.15346 12.6448 2.91318 12.2658 2.92083 11.6948C2.93997 10.2582 2.92934 8.82109 2.92551 7.384C2.92551 6.95304 3.11093 6.63908 3.47838 6.42509C4.72956 5.69251 5.97692 4.95397 7.23405 4.23244C7.69846 3.96613 8.19859 3.96485 8.66258 4.23244C9.82785 4.90079 10.9774 5.59721 12.1418 6.26726C12.6522 6.55995 12.9192 6.95815 12.8856 7.56055C12.8627 7.97705 12.8771 8.39567 12.8856 8.81343C12.8878 8.94106 12.8546 9.01806 12.7376 9.08358C12.1877 9.38989 11.6464 9.70853 11.0573 10.0484Z" fill="#FDFDFE"/>
</svg>
