<svg width="20" height="16" viewBox="0 0 20 16" fill="none" xmlns="http://www.w3.org/2000/svg">
<path fill-rule="evenodd" clip-rule="evenodd" d="M7.75732 6.67345L9.99477 11.6347L13.3243 9.71533L13.3269 9.71433V5.87256L7.75732 6.67345Z" fill="#2BBDF7"/>
<path fill-rule="evenodd" clip-rule="evenodd" d="M17.6337 2.9925L15.556 2.20972L13.335 2.03027V13.9686L16.667 15.8889L19.297 10.5067L17.6383 5.30272L17.6337 2.9925Z" fill="#2891F9"/>
<path fill-rule="evenodd" clip-rule="evenodd" d="M17.4256 2.03369L16.6538 3.95358H16.6528V15.8906L19.9854 13.9707V2.03369H17.4256Z" fill="#2BBDF7"/>
<path fill-rule="evenodd" clip-rule="evenodd" d="M16.6675 0.11084L13.335 2.03217L16.6675 3.95306L20.0001 2.03217L16.6675 0.11084Z" fill="#2B6DEF"/>
<path fill-rule="evenodd" clip-rule="evenodd" d="M9.99666 7.79227V7.79127L6.66466 4.06283L0 2.03027V13.9673L3.33155 15.8881L4.28367 9.28216L6.66455 9.7146V9.71293L9.99711 11.6333V7.79227H9.99666Z" fill="#2891F9"/>
<path fill-rule="evenodd" clip-rule="evenodd" d="M3.33333 0.11084L0 2.03173L9.99566 7.79573L11.5061 6.92528L13.3277 5.87439L3.33333 0.11084Z" fill="#2B6DEF"/>
<path fill-rule="evenodd" clip-rule="evenodd" d="M3.33472 7.79199V15.8873L6.66727 13.967V9.71288L3.33472 7.79199Z" fill="#2BBDF7"/>
</svg>
