<svg width="16" height="8" viewBox="0 0 16 8" fill="none" xmlns="http://www.w3.org/2000/svg">
<path d="M0.544083 0.0190722C0.694083 0.0190722 0.91908 0.0190736 0.99408 0.169074L6.54108 5.72308C6.70264 5.90044 6.89945 6.04213 7.11891 6.13908C7.33837 6.23604 7.57566 6.28612 7.81558 6.28612C8.0555 6.28612 8.29278 6.23604 8.51224 6.13908C8.7317 6.04213 8.92851 5.90044 9.09007 5.72308L14.6371 0.169075C14.7466 0.0596732 14.8951 -0.00173432 15.0499 -0.00164037C15.2047 -0.00154642 15.3532 0.0600366 15.4626 0.169571C15.572 0.279105 15.6334 0.427617 15.6333 0.582428C15.6332 0.737239 15.5716 0.88567 15.4621 0.995071L9.91508 6.54907C9.33375 7.05775 8.58754 7.33813 7.81508 7.33813C7.04262 7.33813 6.2964 7.05775 5.71507 6.54907L0.168076 0.99507C0.059734 0.884907 -0.000975985 0.736588 -0.000975972 0.582076C-0.000975958 0.427564 0.059734 0.279237 0.168076 0.169074C0.169077 0.0190736 0.394084 0.0190722 0.544083 0.0190722Z" fill="white"/>
</svg>
