<svg width="24" height="24" viewBox="0 0 24 24" fill="none" xmlns="http://www.w3.org/2000/svg">
<g clip-path="url(#clip0)">
<path fill-rule="evenodd" clip-rule="evenodd" d="M18.3844 22.7791C18.7064 23.0071 19.1214 23.0641 19.4914 22.9241C19.8614 22.7831 20.1334 22.4671 20.2154 22.0841C21.0844 18.0001 23.1924 7.66315 23.9834 3.94815C24.0434 3.66815 23.9434 3.37715 23.7234 3.19015C23.5034 3.00315 23.1984 2.94915 22.9264 3.05015C18.7334 4.60215 5.8204 9.44715 0.542398 11.4001C0.207398 11.5241 -0.0106021 11.8461 0.000397854 12.1991C0.0123979 12.5531 0.250398 12.8601 0.593398 12.9631C2.9604 13.6711 6.0674 14.6561 6.0674 14.6561C6.0674 14.6561 7.5194 19.0411 8.2764 21.2711C8.3714 21.5511 8.5904 21.7711 8.8794 21.8471C9.1674 21.9221 9.4754 21.8431 9.6904 21.6401C10.9064 20.4921 12.7864 18.7171 12.7864 18.7171C12.7864 18.7171 16.3584 21.3361 18.3844 22.7791ZM7.3744 14.1021L9.0534 19.6401L9.4264 16.1331C9.4264 16.1331 15.9134 10.2821 19.6114 6.94715C19.7194 6.84915 19.7344 6.68515 19.6444 6.57015C19.5554 6.45515 19.3914 6.42815 19.2684 6.50615C14.9824 9.24315 7.3744 14.1021 7.3744 14.1021Z" fill="#FDFFFF"/>
</g>
<defs>
<clipPath id="clip0">
<rect width="24" height="24" fill="white"/>
</clipPath>
</defs>
</svg>
