<svg width="27" height="25" viewBox="0 0 27 25" fill="none" xmlns="http://www.w3.org/2000/svg">
<path d="M13.4955 15.8004C13.3882 15.8095 13.2801 15.7951 13.1789 15.7581C13.0777 15.7211 12.9858 15.6625 12.9096 15.5863C12.8334 15.5101 12.7748 15.4182 12.7378 15.317C12.7008 15.2158 12.6864 15.1078 12.6955 15.0004V9.20041C12.6955 8.98824 12.7798 8.78473 12.9298 8.6347C13.0799 8.48468 13.2834 8.40039 13.4955 8.40039C13.7077 8.40039 13.9112 8.48468 14.0612 8.6347C14.2113 8.78473 14.2955 8.98824 14.2955 9.20041V15.0004C14.2969 15.1058 14.2771 15.2105 14.2374 15.3081C14.1976 15.4058 14.1388 15.4945 14.0642 15.5691C13.9897 15.6436 13.9009 15.7025 13.8033 15.7422C13.7056 15.782 13.601 15.8018 13.4955 15.8004Z" fill="#F57F1B"/>
<path d="M13.4953 19.9003C13.2953 19.9003 12.9953 19.9003 12.8953 19.7003C12.7953 19.5003 12.6953 19.4003 12.6953 19.1003C12.6953 18.8003 12.6953 18.6003 12.8953 18.5003C13.0415 18.355 13.2392 18.2734 13.4453 18.2734C13.6514 18.2734 13.8492 18.355 13.9953 18.5003C14.1953 18.7003 14.1953 18.8003 14.1953 19.1003C14.1578 19.3259 14.0532 19.535 13.8953 19.7003C13.9953 19.9003 13.6953 19.9003 13.4953 19.9003Z" fill="#F57F1B"/>
<path d="M22.9956 24.9001H4.09558C3.37559 24.9052 2.6681 24.712 2.0507 24.3416C1.43331 23.9712 0.929851 23.4378 0.595581 22.8001C0.206199 22.1689 0 21.4418 0 20.7001C0 19.9584 0.206199 19.2314 0.595581 18.6001L9.99559 2.10011C10.3501 1.47946 10.8582 0.96034 11.4711 0.592599C12.084 0.224858 12.7811 0.0208315 13.4956 0.000100462C14.2156 -0.0050535 14.9231 0.188194 15.5405 0.558633C16.1579 0.929073 16.6613 1.4624 16.9956 2.10011L26.3956 18.6001C26.785 19.2314 26.9912 19.9584 26.9912 20.7001C26.9912 21.4418 26.785 22.1689 26.3956 22.8001C26.1144 23.4579 25.6369 24.0128 25.0282 24.3887C24.4196 24.7646 23.7097 24.9432 22.9956 24.9001ZM13.4956 1.80012C13.0539 1.77175 12.6143 1.88168 12.2379 2.11466C11.8616 2.34764 11.5672 2.69208 11.3956 3.10011L1.99559 19.6001C1.75049 19.9894 1.62044 20.4401 1.62044 20.9001C1.62044 21.3601 1.75049 21.8108 1.99559 22.2001C2.209 22.5751 2.51306 22.8906 2.87993 23.1177C3.2468 23.3448 3.66476 23.4763 4.09558 23.5001H23.0956C23.5373 23.5285 23.9769 23.4185 24.3532 23.1856C24.7296 22.9526 25.024 22.6081 25.1956 22.2001C25.4407 21.8108 25.5707 21.3601 25.5707 20.9001C25.5707 20.4401 25.4407 19.9894 25.1956 19.6001L15.7956 3.10011C15.5594 2.70117 15.2227 2.37116 14.8191 2.14304C14.4155 1.91493 13.9592 1.79669 13.4956 1.80012Z" fill="#F57F1B"/>
</svg>
