<svg width="88" height="28" viewBox="0 0 88 28" fill="none" xmlns="http://www.w3.org/2000/svg">
<path d="M0 14C0 6.26803 6.30385 0 14.08 0C21.8561 0 28.16 6.26803 28.16 14C28.16 21.732 21.8561 28 14.08 28C6.30385 28 0 21.732 0 14Z" fill="#006AE3"/>
<path d="M13.498 19.9029V8.25488H14.7736V19.9029H13.498Z" fill="white"/>
<path d="M19.9913 12.1349L16.0521 13.1737L15.1736 9.10807L16.345 8.84487L16.8067 10.7713C16.8067 10.7713 17.8711 9.03527 16.452 7.23767C15.6157 6.31367 15.2187 6.27447 14.281 6.12887C13.4561 6.01127 11.5385 6.28847 10.9669 8.51447C10.7248 9.94807 10.9979 11.0093 12.8563 12.3981L12.7521 13.9437C12.7521 13.9437 10.677 12.4905 10.1419 11.4713C9.72802 10.6649 9.01845 9.07167 10.2996 6.85407C10.9895 5.74528 12.3495 4.68128 14.7457 4.79328C15.9508 4.84368 18.8932 6.30807 18.437 9.72967C18.3582 10.3709 18.0231 11.2249 18.0231 11.2249L19.6393 10.8665L19.9913 12.1349Z" fill="white"/>
<path d="M17.7414 21.2497C17.0206 22.3389 15.6325 23.3665 13.2419 23.1929C12.0368 23.1117 9.1366 21.5689 9.68285 18.1613C9.77859 17.5229 10.1362 16.6801 10.1362 16.6801L8.51151 16.9937L8.19336 15.7197L12.1607 14.7845L12.9322 18.8725L11.7524 19.1049L11.3413 17.1645C11.3413 17.1645 10.2319 18.8697 11.6004 20.7065C12.4113 21.6529 12.8055 21.7005 13.7431 21.8713C14.5625 22.0113 16.4884 21.7817 17.1191 19.5725C17.3979 18.1473 17.1529 17.0777 15.334 15.6385L15.4804 14.0957C15.4804 14.0957 17.5162 15.6021 18.023 16.6353C18.4116 17.4557 19.0789 19.0685 17.7414 21.2497Z" fill="white"/>
<path d="M37.5469 9.1668H40.2258L41.9182 14.1833C42.0626 14.6192 42.1615 15.135 42.215 15.7305H42.2631C42.3219 15.1828 42.4369 14.6671 42.608 14.1833L44.2683 9.1668H46.8911L43.0973 19.2236C42.7497 20.1541 42.2524 20.8506 41.6054 21.3131C40.9637 21.7757 40.2125 22.007 39.3516 22.007C38.9291 22.007 38.5147 21.9618 38.1083 21.8714V19.9414C38.4024 20.0105 38.7233 20.0451 39.0709 20.0451C39.5039 20.0451 39.8809 19.9121 40.2018 19.6463C40.528 19.3858 40.7819 18.9897 40.9637 18.458L41.1081 18.0194L37.5469 9.1668ZM51.8962 10.73C51.3775 10.73 50.9711 10.8948 50.677 11.2244C50.3829 11.5488 50.2144 12.0113 50.1716 12.6121H53.6046C53.5939 12.0113 53.4362 11.5488 53.1314 11.2244C52.8265 10.8948 52.4148 10.73 51.8962 10.73ZM52.2411 18.2426C50.7973 18.2426 49.669 17.8466 48.8562 17.0543C48.0435 16.2622 47.6371 15.1403 47.6371 13.6888C47.6371 12.1948 48.0114 11.041 48.76 10.2275C49.5139 9.40876 50.554 8.99932 51.8801 8.99932C53.1474 8.99932 54.1339 9.35825 54.8398 10.076C55.5456 10.7938 55.8985 11.7854 55.8985 13.0507V14.2311H50.1155C50.1423 14.9223 50.3481 15.462 50.7331 15.8501C51.1181 16.2382 51.6582 16.4323 52.3533 16.4323C52.8934 16.4323 53.4041 16.3764 53.8853 16.2648C54.3666 16.1531 54.8692 15.9751 55.3932 15.7305V17.6126C54.9655 17.8253 54.5083 17.9821 54.0216 18.0832C53.5351 18.1895 52.9415 18.2426 52.2411 18.2426ZM63.5826 18.0832L63.1091 16.8709H63.0452C62.6333 17.3867 62.208 17.7455 61.7698 17.9476C61.3368 18.1443 60.7701 18.2426 60.0696 18.2426C59.2084 18.2426 58.5294 17.9981 58.0321 17.5089C57.5401 17.0198 57.2942 16.3233 57.2942 15.4194C57.2942 14.473 57.6257 13.7765 58.2888 13.3299C58.9573 12.878 59.9622 12.6281 61.3045 12.5802L62.8604 12.5324V12.1416C62.8604 11.2377 62.3951 10.7858 61.4653 10.7858C60.7484 10.7858 59.9065 11.0011 58.9385 11.4318L58.1283 9.78887C59.1603 9.25191 60.3048 8.9834 61.5615 8.9834C62.7642 8.9834 63.687 9.24392 64.3282 9.76495C64.97 10.286 65.2909 11.0782 65.2909 12.1416V18.0832H63.5826ZM62.8604 13.952L61.9141 13.9839C61.203 14.0051 60.6739 14.1328 60.326 14.3667C59.9787 14.6006 59.8044 14.9568 59.8044 15.4354C59.8044 16.1212 60.2004 16.4642 60.9918 16.4642C61.5586 16.4642 62.0103 16.302 62.347 15.9777C62.6896 15.6533 62.8604 15.2227 62.8604 14.6857V13.952ZM72.8226 8.99932C73.154 8.99932 73.4292 9.0233 73.6486 9.07113L73.4644 11.352C73.2661 11.2989 73.0255 11.2723 72.7422 11.2723C71.9613 11.2723 71.3518 11.4717 70.9135 11.8704C70.4806 12.2692 70.2641 12.8274 70.2641 13.5452V18.0832H67.8177V9.1668H69.6704L70.0312 10.6662H70.1515C70.4295 10.1664 70.8038 9.76495 71.2743 9.46191C71.7501 9.15356 72.2664 8.99932 72.8226 8.99932ZM83.5544 18.0832H81.108V12.8753C81.108 12.232 80.9931 11.7508 80.7631 11.4318C80.5331 11.1075 80.167 10.9453 79.6643 10.9453C78.9796 10.9453 78.4851 11.1739 78.1806 11.6312C77.8755 12.0831 77.723 12.8354 77.723 13.8882V18.0832H75.2766V9.1668H77.1457L77.4748 10.3073H77.6109C77.8837 9.8766 78.258 9.55232 78.7338 9.33433C79.2149 9.11097 79.7605 8.99932 80.37 8.99932C81.4125 8.99932 82.2039 9.28113 82.7443 9.84475C83.2846 10.403 83.5544 11.2111 83.5544 12.2692V18.0832Z" fill="white"/>
</svg>
